<?xml version="1.0" encoding="UTF-8" standalone="no"?>
<svg
   xmlns:dc="http://purl.org/dc/elements/1.1/"
   xmlns:cc="http://creativecommons.org/ns#"
   xmlns:rdf="http://www.w3.org/1999/02/22-rdf-syntax-ns#"
   xmlns:svg="http://www.w3.org/2000/svg"
   xmlns="http://www.w3.org/2000/svg"
   xmlns:sodipodi="http://sodipodi.sourceforge.net/DTD/sodipodi-0.dtd"
   xmlns:inkscape="http://www.inkscape.org/namespaces/inkscape"
   version="1.1"
   width="45"
   height="45"
   id="svg18"
   sodipodi:docname="king_white.svg"
   inkscape:version="1.0.1 (0767f8302a, 2020-10-17)">
  <metadata
     id="metadata24">
    <rdf:RDF>
      <cc:Work
         rdf:about="">
        <dc:format>image/svg+xml</dc:format>
        <dc:type
           rdf:resource="http://purl.org/dc/dcmitype/StillImage" />
      </cc:Work>
    </rdf:RDF>
  </metadata>
  <defs
     id="defs22" />
  <sodipodi:namedview
     pagecolor="#ffffff"
     bordercolor="#666666"
     borderopacity="1"
     objecttolerance="10"
     gridtolerance="10"
     guidetolerance="10"
     inkscape:pageopacity="0"
     inkscape:pageshadow="2"
     inkscape:window-width="1848"
     inkscape:window-height="1016"
     id="namedview20"
     showgrid="false"
     inkscape:zoom="19.333333"
     inkscape:cx="22.5"
     inkscape:cy="20.431034"
     inkscape:window-x="72"
     inkscape:window-y="27"
     inkscape:window-maximized="1"
     inkscape:current-layer="svg18" />
  <g
     style="fill:#f9f9f9;fill-opacity:1;fill-rule:evenodd;stroke:#000000;stroke-width:1.5;stroke-linecap:round;stroke-linejoin:round;stroke-miterlimit:4;stroke-dasharray:none;stroke-opacity:1"
     id="g16">
    <path
       d="M 22.5,11.63 L 22.5,6"
       style="fill:#f9f9f9;stroke:#000000;stroke-linejoin:miter;fill-opacity:1"
       id="path2" />
    <path
       d="M 20,8 L 25,8"
       style="fill:#f9f9f9;stroke:#000000;stroke-linejoin:miter;fill-opacity:1"
       id="path4" />
    <path
       d="M 22.5,25 C 22.5,25 27,17.5 25.5,14.5 C 25.5,14.5 24.5,12 22.5,12 C 20.5,12 19.5,14.5 19.5,14.5 C 18,17.5 22.5,25 22.5,25"
       style="fill:#f9f9f9;stroke:#000000;stroke-linecap:butt;stroke-linejoin:miter;fill-opacity:1"
       id="path6" />
    <path
       d="M 11.5,37 C 17,40.5 27,40.5 32.5,37 L 32.5,30 C 32.5,30 41.5,25.5 38.5,19.5 C 34.5,13 25,16 22.5,23.5 L 22.5,27 L 22.5,23.5 C 19,16 9.5,13 6.5,19.5 C 3.5,25.5 11.5,29.5 11.5,29.5 L 11.5,37 z "
       style="fill:#f9f9f9;stroke:#000000;fill-opacity:1"
       id="path8" />
    <path
       d="M 11.5,30 C 17,27 27,27 32.5,30"
       style="fill:#f9f9f9;stroke:#000000;fill-opacity:1"
       id="path10" />
    <path
       d="M 11.5,33.5 C 17,30.5 27,30.5 32.5,33.5"
       style="fill:#f9f9f9;stroke:#000000;fill-opacity:1"
       id="path12" />
    <path
       d="M 11.5,37 C 17,34 27,34 32.5,37"
       style="fill:#f9f9f9;stroke:#000000;fill-opacity:1"
       id="path14" />
  </g>
</svg>
